<svg width="1044" height="358" viewBox="0 0 1044 358" fill="none" xmlns="http://www.w3.org/2000/svg">
<path d="M180.023 0C213.307 0 238.91 9.6012 256.832 28.8036C274.114 48.326 279.555 73.4492 273.154 104.173C268.354 126.256 257.792 145.938 241.47 163.22C225.468 180.183 202.585 196.345 172.822 211.706L131.536 232.829C108.494 244.671 91.5314 256.352 80.6501 267.874C69.7687 279.715 61.4477 294.757 55.687 312.999H233.309L225.628 349.484H0L4.8006 330.761C11.8415 303.238 22.5628 279.235 36.9646 258.752C51.0464 239.55 74.0893 221.788 106.093 205.466L154.579 180.503C178.902 168.021 196.825 156.18 208.346 144.978C219.867 133.457 227.388 119.855 230.909 104.173C235.389 82.7303 232.829 66.0883 223.228 54.2468C213.947 42.4053 197.945 36.4846 175.222 36.4846C129.136 36.4846 100.973 60.9676 90.7313 109.934H50.4063C63.848 36.6446 107.053 0 180.023 0Z" fill="black"/>
<path d="M419.501 13.4417L418.061 29.2837C407.5 29.2837 399.499 31.3639 394.058 35.5244C388.617 39.685 384.777 45.4457 382.537 52.8066C380.616 59.8475 379.336 67.8485 378.696 76.8096L371.015 232.349C369.415 262.433 365.574 286.596 359.494 304.838C353.733 323.08 344.932 336.362 333.09 344.683C321.569 353.004 306.527 357.165 287.965 357.165C280.284 357.165 272.763 356.045 265.402 353.804C258.041 351.884 251.8 348.364 246.68 343.243C241.879 338.122 239.479 331.401 239.479 323.08C239.479 316.68 241.399 311.079 245.239 306.278C248.76 301.158 253.88 298.437 260.601 298.117C268.602 297.477 274.363 299.717 277.883 304.838C281.404 309.639 283.164 314.439 283.164 319.24C283.164 320.84 283.004 322.76 282.684 325.001C282.364 326.921 281.884 328.681 281.244 330.281C282.844 332.842 285.244 334.762 288.445 336.042C291.645 337.322 294.526 337.962 297.086 337.962C300.926 337.642 305.087 336.362 309.567 334.122C314.368 331.881 318.529 326.441 322.049 317.8C325.889 308.839 328.29 294.917 329.25 276.035L338.851 85.4507C339.491 76.4896 339.971 67.6885 340.291 59.0474C340.931 50.4063 341.411 41.6052 341.731 32.6441C336.291 32.6441 330.85 32.8041 325.409 33.1241C319.969 33.4442 314.528 33.7642 309.087 34.0843C303.647 34.0843 298.206 34.2443 292.765 34.5643L293.725 13.4417H419.501Z" fill="black"/>
<path d="M547.97 104.173C557.571 104.173 568.132 104.973 579.654 106.573C591.175 107.853 602.057 109.774 612.298 112.334C609.737 131.536 607.177 150.739 604.617 169.941C602.377 188.824 600.136 206.906 597.896 224.188C595.976 241.15 594.376 256.512 593.095 270.274C591.815 283.715 591.175 294.277 591.175 301.958C591.175 308.359 591.655 314.759 592.615 321.16C593.575 327.561 597.576 330.761 604.617 330.761C610.057 330.761 615.978 327.241 622.379 320.2C629.1 313.159 634.861 301.158 639.661 284.196L653.103 287.076C652.143 292.837 650.063 299.557 646.862 307.238C643.982 314.599 639.981 321.96 634.861 329.321C629.74 336.682 623.499 342.763 616.138 347.563C608.777 352.364 600.296 354.764 590.695 354.764C577.893 354.764 568.772 350.764 563.332 342.763C557.891 334.762 555.171 324.361 555.171 311.559C555.171 302.278 555.971 292.197 557.571 281.315C559.491 270.434 561.571 259.072 563.812 247.231H562.372C554.691 270.914 546.69 289.956 538.369 304.358C530.368 318.44 522.207 329.161 513.885 336.522C505.884 343.883 498.044 348.684 490.363 350.924C482.682 353.484 475.481 354.764 468.76 354.764C451.478 354.764 436.916 348.364 425.074 335.562C413.553 322.76 407.792 301.318 407.792 271.234C407.792 248.831 410.673 227.548 416.433 207.386C422.194 187.223 430.835 169.461 442.357 154.099C454.198 138.417 468.92 126.256 486.522 117.615C504.124 108.654 524.607 104.173 547.97 104.173ZM533.088 121.455C518.686 121.455 506.045 125.456 495.163 133.457C484.602 141.458 475.801 152.339 468.76 166.101C461.719 179.542 456.438 194.744 452.918 211.706C449.717 228.349 448.117 245.471 448.117 263.073C448.117 283.555 450.358 300.518 454.838 313.959C459.319 327.081 467.48 333.642 479.321 333.642C487.962 333.642 496.603 329.321 505.244 320.68C514.206 312.039 522.527 300.518 530.208 286.116C537.888 271.394 544.769 255.072 550.85 237.15C556.931 218.907 561.731 200.345 565.252 181.463C568.772 162.58 570.533 144.498 570.533 127.216C565.732 125.296 560.131 123.855 553.73 122.895C547.33 121.935 540.449 121.455 533.088 121.455Z" fill="black"/>
<path d="M980.913 354.764C965.871 354.764 955.629 350.764 950.189 342.763C945.068 334.762 942.508 323.4 942.508 308.679C942.508 299.717 943.308 289.156 944.908 276.995C946.828 264.833 948.909 251.871 951.149 238.11C953.389 224.348 955.309 210.426 956.91 196.345C958.83 182.263 959.79 168.821 959.79 156.02C959.79 152.179 959.15 148.019 957.87 143.538C956.59 139.057 954.349 135.217 951.149 132.017C947.948 128.496 943.148 126.736 936.747 126.736C927.786 126.736 918.985 130.896 910.344 139.217C901.703 147.538 893.702 158.74 886.341 172.822C878.98 186.903 872.419 202.585 866.658 219.867C861.218 236.83 856.897 254.432 853.697 272.674C850.496 290.596 848.896 307.718 848.896 324.041C848.896 328.841 848.896 333.322 848.896 337.482C849.216 341.323 849.536 345.323 849.856 349.484H809.531C809.211 347.243 809.051 345.323 809.051 343.723C809.051 341.803 809.051 339.562 809.051 337.002C809.051 324.841 809.851 310.439 811.451 293.797C813.372 277.155 815.452 260.033 817.692 242.43C820.253 224.828 822.333 208.186 823.933 192.504C825.853 176.822 826.653 164.021 826.333 154.099C826.013 148.659 824.413 142.738 821.533 136.337C818.652 129.936 812.572 126.736 803.29 126.736C794.329 126.736 785.528 130.896 776.887 139.217C768.566 147.538 760.725 158.74 753.364 172.822C746.003 186.903 739.442 202.585 733.682 219.867C727.921 236.83 723.44 254.432 720.24 272.674C717.04 290.596 715.439 307.718 715.439 324.041C715.439 328.841 715.439 333.322 715.439 337.482C715.759 341.323 716.079 345.323 716.4 349.484H676.074C675.754 347.243 675.594 345.323 675.594 343.723C675.594 341.803 675.594 339.562 675.594 337.002C675.594 331.561 675.754 325.321 676.074 318.28C676.715 310.919 677.675 301.318 678.955 289.476C680.555 277.315 682.475 261.153 684.716 240.99C686.956 222.108 688.716 207.386 689.996 196.825C691.276 186.263 692.237 178.262 692.877 172.822C693.517 167.061 693.837 162.74 693.837 159.86C694.157 156.66 694.317 153.299 694.317 149.779C694.317 144.018 693.517 139.057 691.916 134.897C690.316 130.416 686.796 128.176 681.355 128.176C676.235 128.176 670.314 131.696 663.593 138.737C656.872 145.778 651.111 157.78 646.311 174.742L632.869 171.861C633.829 166.101 635.749 159.54 638.63 152.179C641.83 144.498 645.991 136.977 651.111 129.616C656.232 122.255 662.473 116.175 669.834 111.374C677.195 106.573 685.676 104.173 695.277 104.173C705.838 104.173 713.679 106.893 718.8 112.334C723.92 117.455 727.281 124.336 728.881 132.977C730.801 141.298 731.441 150.419 730.801 160.34C730.481 169.301 729.521 178.422 727.921 187.703C726.321 196.665 724.881 204.506 723.6 211.226H725.041C735.282 182.103 745.363 159.86 755.284 144.498C765.526 129.136 775.447 118.575 785.048 112.814C794.969 107.053 804.251 104.173 812.892 104.173C825.693 104.173 835.774 107.213 843.135 113.294C850.816 119.055 856.257 126.096 859.457 134.417C862.658 142.738 864.258 150.899 864.258 158.9C864.258 167.861 863.618 175.542 862.338 181.943C861.058 188.344 858.977 197.625 856.097 209.786H857.537C868.098 180.663 878.5 158.58 888.741 143.538C899.302 128.176 909.544 117.775 919.465 112.334C929.386 106.893 938.667 104.173 947.308 104.173C960.11 104.173 970.191 107.053 977.552 112.814C984.913 118.575 990.034 126.256 992.914 135.857C996.114 145.138 997.715 155.379 997.715 166.581C997.715 184.183 996.435 202.265 993.874 220.828C991.314 239.07 988.594 256.032 985.713 271.714C983.153 287.076 981.873 299.397 981.873 308.679C981.873 314.439 982.513 319.56 983.793 324.041C985.393 328.521 989.074 330.761 994.834 330.761C1000.28 330.761 1006.36 327.401 1013.08 320.68C1019.8 313.639 1025.56 301.478 1030.36 284.196L1043.8 287.556C1042.84 292.997 1040.76 299.557 1037.56 307.238C1034.36 314.919 1030.2 322.44 1025.08 329.801C1019.96 336.842 1013.72 342.763 1006.36 347.563C998.995 352.364 990.514 354.764 980.913 354.764Z" fill="black"/>
</svg>
